<svg version="1.1" xmlns="http://www.w3.org/2000/svg" viewBox="0 0 3900 1440" width="3900" height="1440">
  <!-- svg-source:excalidraw -->
  
  <defs>
    <style class="style-fonts">
      @font-face {
        font-family: "Virgil";
        src: url("https://excalidraw.com/Virgil.woff2");
      }
      @font-face {
        font-family: "Cascadia";
        src: url("https://excalidraw.com/Cascadia.woff2");
      }
    </style>
    
  </defs>
  <rect x="0" y="0" width="3900" height="1440" fill="#ffffff"></rect><g stroke-linecap="round" transform="translate(10 10) rotate(0 1940 710)"><path d="M34.28 -3.54 L3844.22 -0.37 L3865.82 -0.02 L3875.35 12.21 L3877.13 35.44 L3876.69 1389.99 L3875.84 1400.35 L3863.84 1417 L3850.51 1422.3 L31.34 1421.36 L18.65 1418.92 L5.66 1408.23 L2.68 1385.91 L-3.8 30.85 L5.99 21.04 L5.8 7.01 L14.9 -1.86 L34.25 -3.42" stroke="none" stroke-width="0" fill="#fff"></path><path d="M32 0 M32 0 C1046.56 -6.12, 2063.48 -6.08, 3848 0 M32 0 C953.91 -4.09, 1875.88 -3.95, 3848 0 M3848 0 C3870.34 -1.77, 3879.86 14.11, 3880 32 M3848 0 C3867.89 3.88, 3881.6 10.9, 3880 32 M3880 32 C3888.16 531.64, 3889.99 1030.02, 3880 1388 M3880 32 C3878.77 424.56, 3879.73 816.54, 3880 1388 M3880 1388 C3878.68 1407.23, 3871.19 1416.93, 3848 1420 M3880 1388 C3879.87 1410.58, 3865.19 1421.68, 3848 1420 M3848 1420 C2934.2 1436.08, 2020.91 1436.79, 32 1420 M3848 1420 C2472.25 1418.89, 1096.75 1419.48, 32 1420 M32 1420 C10.22 1423.38, -2.8 1407.59, 0 1388 M32 1420 C7.19 1423.6, 4.07 1408.06, 0 1388 M0 1388 C3.29 997.49, 2.58 611.2, 0 32 M0 1388 C-9.48 988, -8.19 587.9, 0 32 M0 32 C-1.69 7.97, 10.19 -2.62, 32 0 M0 32 C-1.14 6.55, 10.16 2.28, 32 0" stroke="#f8f9fa" stroke-width="4" fill="none"></path></g><g stroke-linecap="round" transform="translate(950 150) rotate(0 1410 590)"><path d="M28.22 0.11 L2790.44 1.43 L2803.83 3.82 L2818.22 10.16 L2819.49 35.91 L2816.37 1144.17 L2821.33 1162.88 L2803.51 1172.91 L2787.51 1180.18 L32.35 1180.8 L16.27 1180.18 L2.66 1168.17 L-2.1 1144.19 L-3.74 30.31 L-1.23 14.46 L7.55 5.95 L15.28 0.18 L30.98 2.73" stroke="none" stroke-width="0" fill="#f8f1ee"></path><path d="M32 0 M32 0 C992.79 2.98, 1952.75 2.62, 2788 0 M32 0 C1069.17 -10.38, 2106.63 -11.07, 2788 0 M2788 0 C2810.59 3.3, 2821.73 8.47, 2820 32 M2788 0 C2806.84 4.59, 2822.87 10.32, 2820 32 M2820 32 C2818.01 466.19, 2815.94 902.11, 2820 1148 M2820 32 C2825.29 261.28, 2824.76 490.97, 2820 1148 M2820 1148 C2822.56 1168.39, 2810.17 1176.59, 2788 1180 M2820 1148 C2823.33 1173.15, 2812.18 1178.27, 2788 1180 M2788 1180 C2043.12 1161.57, 1296.87 1159.68, 32 1180 M2788 1180 C2228.03 1177.93, 1666.94 1178.27, 32 1180 M32 1180 C8 1183.86, -0.14 1172.11, 0 1148 M32 1180 C14.6 1177, 3.93 1171.01, 0 1148 M0 1148 C-7.37 717.43, -6.59 288.16, 0 32 M0 1148 C1.43 889.04, 1.76 629.74, 0 32 M0 32 C-2.81 13.12, 13.28 1.61, 32 0 M0 32 C-3.41 6.41, 13.45 -0.09, 32 0" stroke="#f8f1ee" stroke-width="4" fill="none"></path></g><g stroke-linecap="round" transform="translate(90 550) rotate(0 180 90)"><path d="M29.17 1.04 L324.5 -2.78 L344.5 4.88 L356.98 8.82 L361.56 30.49 L359.79 151.8 L359.29 168.07 L347.85 171.87 L325.58 181.89 L31.01 182.84 L10.23 175.28 L3.03 163.56 L4.49 153.13 L-2.85 25.46 L5.06 8.89 L16.01 4.52 L30.56 -2.93" stroke="none" stroke-width="0" fill="#eaddd7"></path><path d="M32 0 M32 0 C137.04 -3.49, 242.34 -4.79, 328 0 M32 0 C95.44 -1.64, 160.36 -3.13, 328 0 M328 0 C351.51 1.51, 358.2 9.64, 360 32 M328 0 C352.81 3.7, 361.57 6.8, 360 32 M360 32 C360.9 74.39, 357.87 109.87, 360 148 M360 32 C362.96 70.32, 363.31 107.83, 360 148 M360 148 C359.27 168.69, 350.52 177.6, 328 180 M360 148 C364.46 172.71, 352.61 177.46, 328 180 M328 180 C235.08 182.26, 139.2 184.08, 32 180 M328 180 C235.58 175.74, 142.88 175.49, 32 180 M32 180 C9.64 179.86, -0.2 171.05, 0 148 M32 180 C12.37 184.39, -0.7 171.06, 0 148 M0 148 C2.32 118.19, 1.07 84.6, 0 32 M0 148 C1.43 117.87, -0.11 89.22, 0 32 M0 32 C-0.92 7.77, 9.36 -1.15, 32 0 M0 32 C4.26 6.59, 13.56 -1.08, 32 0" stroke="#1e1e1e" stroke-width="4" fill="none"></path></g><g transform="translate(206.71875 618.3999999999996) rotate(0 63.28125 21.59999999999991)"><text x="63.28125" y="0" font-family="Cascadia, Segoe UI Emoji" font-size="36px" fill="#1e1e1e" text-anchor="middle" style="white-space: pre;" direction="ltr" dominant-baseline="text-before-edge">Client</text></g><g stroke-linecap="round" transform="translate(1050 550) rotate(0 160 90)"><path d="M29.79 0.75 L291.85 1.57 L309.45 5.23 L315.4 15.68 L320.41 29.59 L316.94 146.42 L313.06 163.56 L304.38 174.48 L287.86 179.8 L33.72 181.48 L16.31 174.89 L6 166.99 L0.5 155.88 L2.82 28.01 L9.07 11.23 L16.37 -1.03 L29.71 -0.65" stroke="none" stroke-width="0" fill="#fff"></path><path d="M32 0 M32 0 C107.17 -5.12, 182.77 -3.71, 288 0 M32 0 C132.14 -2.01, 233.17 -1.42, 288 0 M288 0 C311.62 3.46, 323.21 6.67, 320 32 M288 0 C306.49 -0.18, 324.2 9.36, 320 32 M320 32 C319.6 64.93, 320.88 104.62, 320 148 M320 32 C320.65 64.8, 321.93 95.72, 320 148 M320 148 C318.09 167.4, 307.37 176.21, 288 180 M320 148 C323.09 167.64, 307.32 183.78, 288 180 M288 180 C203.36 181.27, 118.15 185.71, 32 180 M288 180 C229.68 183.04, 174.65 182.3, 32 180 M32 180 C7.98 179.03, 2.45 170.26, 0 148 M32 180 C8.01 184.41, -2.4 166.5, 0 148 M0 148 C1.06 101.6, -1.13 59.37, 0 32 M0 148 C-1.68 106.22, -0.27 62.64, 0 32 M0 32 C-0.51 8.36, 13.82 -1.02, 32 0 M0 32 C-2.22 13.49, 6.8 2.92, 32 0" stroke="#f08c00" stroke-width="4" fill="none"></path></g><g transform="translate(1188.90625 618.3999999999996) rotate(0 21.09375 21.59999999999991)"><text x="21.09375" y="0" font-family="Cascadia, Segoe UI Emoji" font-size="36px" fill="#f08c00" text-anchor="middle" style="white-space: pre;" direction="ltr" dominant-baseline="text-before-edge">IO</text></g><g stroke-linecap="round" transform="translate(1530 550) rotate(0 170 90)"><path d="M31.03 2.45 L308.93 -2.31 L331.33 2.41 L333.04 15.63 L341.26 34.36 L341.8 145.48 L335.11 166.65 L330.46 178.12 L310.08 179.69 L35.22 182.51 L15.34 174.99 L2.2 170.66 L-0.52 153.57 L2.95 21.14 L10.54 11.05 L20.49 -0.9 L28.49 2.1" stroke="none" stroke-width="0" fill="#fff"></path><path d="M32 0 M32 0 C139.92 -5.14, 250.85 -4.38, 308 0 M32 0 C123.9 4.06, 217.18 4.97, 308 0 M308 0 C327.65 2.61, 340.6 9.98, 340 32 M308 0 C328.81 1.45, 337.54 8.44, 340 32 M340 32 C338.97 62.15, 337.34 92.37, 340 148 M340 32 C339.7 57.61, 338.48 87.73, 340 148 M340 148 C341.99 168.16, 330.09 182.74, 308 180 M340 148 C340.38 172.92, 330.56 180.82, 308 180 M308 180 C232.74 180.14, 155.83 180.76, 32 180 M308 180 C209.09 184.25, 113.89 183.01, 32 180 M32 180 C10.68 183.72, -3.83 166.81, 0 148 M32 180 C11.82 182.45, -2.75 167.57, 0 148 M0 148 C0.14 125.68, -3.64 96.01, 0 32 M0 148 C-0.18 113.23, 0.51 74.8, 0 32 M0 32 C0.32 10.46, 8.18 1.6, 32 0 M0 32 C-0.77 12.47, 11.55 -2.96, 32 0" stroke="#f08c00" stroke-width="4" fill="none"></path></g><g transform="translate(1647.265625 618.3999999999996) rotate(0 52.734375 21.59999999999991)"><text x="52.734375" y="0" font-family="Cascadia, Segoe UI Emoji" font-size="36px" fill="#f08c00" text-anchor="middle" style="white-space: pre;" direction="ltr" dominant-baseline="text-before-edge">SerDe</text></g><g stroke-linecap="round" transform="translate(2130 390) rotate(0 130 270)"><path d="M33.88 1.16 L231.92 0.82 L251.79 5.51 L259.6 17.33 L261.57 32.77 L257.43 511.4 L256.28 524.96 L243 534.02 L225.08 541.06 L33.5 537.64 L12.65 535.48 L-1.85 519.63 L1.77 509.56 L2.26 30.3 L5.76 14.08 L5.17 10.91 L16.01 2.76 L34.31 3.65" stroke="none" stroke-width="0" fill="#fff"></path><path d="M32 0 M32 0 C104.56 1.99, 170.03 -1.9, 228 0 M32 0 C104.27 -0.78, 180.09 0.12, 228 0 M228 0 C249.12 0.4, 261.71 11.6, 260 32 M228 0 C248.84 -3, 258.52 11.47, 260 32 M260 32 C258.16 168.62, 259.71 302.77, 260 508 M260 32 C263.16 172.5, 263.5 313.86, 260 508 M260 508 C261.33 528.51, 251 541.57, 228 540 M260 508 C261.21 529.65, 252.77 535.66, 228 540 M228 540 C164.72 539.18, 104.29 532.88, 32 540 M228 540 C185.04 539.53, 146.87 538, 32 540 M32 540 C11.16 542.41, -2.17 528.15, 0 508 M32 540 C7.86 544.33, 2.54 526.25, 0 508 M0 508 C-3.07 335.5, -4.14 160.7, 0 32 M0 508 C2.15 381.08, 1.17 254.87, 0 32 M0 32 C2.44 7.29, 12.62 3.31, 32 0 M0 32 C-3.41 9.48, 13.13 -0.06, 32 0" stroke="#2f9e44" stroke-width="4" fill="none"></path></g><g transform="translate(2154.53125 638.3999999999996) rotate(0 105.46875 21.59999999999991)"><text x="105.46875" y="0" font-family="Cascadia, Segoe UI Emoji" font-size="36px" fill="#2f9e44" text-anchor="middle" style="white-space: pre;" direction="ltr" dominant-baseline="text-before-edge">Dispatcher</text></g><g stroke-linecap="round" transform="translate(2690 390) rotate(0 130 270)"><path d="M28.68 2.91 L236.4 3.54 L255.59 5.49 L258.8 20.27 L261.53 30.87 L257.83 506.16 L258.42 523.77 L239.34 536.46 L227.09 539 L33.67 537.02 L8.82 535.91 L0.06 523.71 L3.85 505.93 L2.7 30.49 L-0.18 15.04 L8.71 11.37 L15.33 1.28 L30.16 2.44" stroke="none" stroke-width="0" fill="#fff"></path><path d="M32 0 M32 0 C77.02 -1.98, 114.06 -1.69, 228 0 M32 0 C98.19 -2.97, 166.26 -2.84, 228 0 M228 0 C245.76 -1.77, 259.9 14.65, 260 32 M228 0 C248 -0.53, 257.86 7.21, 260 32 M260 32 C261.94 135.59, 263.18 239.17, 260 508 M260 32 C263.29 176.61, 262.32 322.71, 260 508 M260 508 C258.23 528.2, 247.38 536.67, 228 540 M260 508 C263.5 528.75, 246.61 538.5, 228 540 M228 540 C167.53 539.94, 116.45 541.61, 32 540 M228 540 C172.48 539.38, 116.59 539.99, 32 540 M32 540 C7.09 537.79, -2.14 526.44, 0 508 M32 540 C8.96 536.82, -0.61 526.71, 0 508 M0 508 C-0.07 382.01, -2.48 256.57, 0 32 M0 508 C2.95 381.76, 3.02 255.31, 0 32 M0 32 C1.22 6.95, 13.82 1.27, 32 0 M0 32 C3.52 11.92, 15.04 -4.22, 32 0" stroke="#2f9e44" stroke-width="4" fill="none"></path></g><g stroke-linecap="round" transform="translate(2730 450) rotate(0 90 30)"><path d="M12.11 3.73 L170.06 -1.85 L174.95 -0.01 L177.85 8.59 L177.24 53.12 L171.61 60.74 L164.37 59.97 L8.45 58.75 L-0.08 54.96 L-2.64 50.31 L0.77 15.4 L0.05 4.07 L13.46 0.7" stroke="none" stroke-width="0" fill="#fff"></path><path d="M15 0 M15 0 C61.1 -2.48, 116.79 -4.12, 165 0 M15 0 C43.54 0.01, 74.01 -0.83, 165 0 M165 0 C177.39 -3.76, 181.3 3.04, 180 15 M165 0 C177.98 -2.18, 177.08 6.32, 180 15 M180 15 C177.35 22.18, 183.55 30.99, 180 45 M180 15 C179.68 22.25, 182.11 31.93, 180 45 M180 45 C180.18 56.87, 177.16 58.05, 165 60 M180 45 C182.02 54.19, 175.26 62.86, 165 60 M165 60 C135.51 64.09, 107.1 61.74, 15 60 M165 60 C136.27 61.44, 103.35 58.64, 15 60 M15 60 C2.31 62.05, 3.49 55.4, 0 45 M15 60 C6.6 62.12, -0.97 51.01, 0 45 M0 45 C-2.54 41.2, 2.07 33.22, 0 15 M0 45 C0.7 40.25, 0.54 31.75, 0 15 M0 15 C3.29 6, 7.27 2.55, 15 0 M0 15 C4.05 1.35, 3.85 -4.2, 15 0" stroke="#2f9e44" stroke-width="4" fill="none"></path></g><g transform="translate(2777.8125 458.39999999999964) rotate(0 42.1875 21.59999999999991)"><text x="42.1875" y="0" font-family="Cascadia, Segoe UI Emoji" font-size="36px" fill="#2f9e44" text-anchor="middle" style="white-space: pre;" direction="ltr" dominant-baseline="text-before-edge">hset</text></g><g stroke-linecap="round" transform="translate(2730 550) rotate(0 90 30)"><path d="M15.89 -3.77 L170.66 -1.95 L180.2 2.85 L179.94 13.36 L181.22 49.61 L175.9 57.19 L165.22 62.48 L4.5 58.83 L4.66 57 L3.64 51.11 L1.29 7.62 L-0.12 3.77 L18.54 2.85" stroke="none" stroke-width="0" fill="#fff"></path><path d="M15 0 M15 0 C57.06 5.51, 95.4 3.41, 165 0 M15 0 C65.35 3.23, 117.99 1.43, 165 0 M165 0 C177.84 2.26, 181.49 1.7, 180 15 M165 0 C175.63 -2.58, 181.81 9.07, 180 15 M180 15 C180.94 27.21, 182.49 38.4, 180 45 M180 15 C181.44 23.47, 178.29 29.06, 180 45 M180 45 C183.23 58.26, 174.45 62.04, 165 60 M180 45 C180.86 52.76, 170.7 55.47, 165 60 M165 60 C118.06 55.86, 69.11 56.47, 15 60 M165 60 C114.74 61.83, 61.81 62.09, 15 60 M15 60 C2.74 61.85, 3.13 55.04, 0 45 M15 60 C6.9 60.92, -1.34 55.73, 0 45 M0 45 C0.32 41.13, -3.03 35.49, 0 15 M0 45 C-0.57 34.47, -1.24 25.36, 0 15 M0 15 C2.7 7.69, 2.83 -0.91, 15 0 M0 15 C-1.02 7.84, 1.98 -2.01, 15 0" stroke="#2f9e44" stroke-width="4" fill="none"></path></g><g transform="translate(2777.8125 558.3999999999996) rotate(0 42.1875 21.59999999999991)"><text x="42.1875" y="0" font-family="Cascadia, Segoe UI Emoji" font-size="36px" fill="#2f9e44" text-anchor="middle" style="white-space: pre;" direction="ltr" dominant-baseline="text-before-edge">hget</text></g><g stroke-linecap="round" transform="translate(2730 830) rotate(0 90 30)"><path d="M15.32 -2.75 L173.35 -1.64 L177.86 6.66 L181.02 11.95 L180.83 49.3 L175.99 61.02 L165.04 61.65 L9.23 57.9 L4.38 52.84 L2.48 45.59 L0.89 14.05 L1.06 7.12 L17.19 1.66" stroke="none" stroke-width="0" fill="#fff"></path><path d="M15 0 M15 0 C58 3.12, 107.65 2.52, 165 0 M15 0 C53.11 -0.65, 87.87 1.87, 165 0 M165 0 C172.39 2.96, 182.55 7.46, 180 15 M165 0 C177.51 3.44, 180.81 6.33, 180 15 M180 15 C181.09 22.52, 182.84 23.97, 180 45 M180 15 C179 23.58, 180.22 30.56, 180 45 M180 45 C181.1 58.16, 171.28 61.79, 165 60 M180 45 C177.88 52.88, 173.43 60.17, 165 60 M165 60 C124.92 54.41, 82.99 61.03, 15 60 M165 60 C110.51 62.41, 56.33 59.74, 15 60 M15 60 C2.11 58, -0.93 56.72, 0 45 M15 60 C0.72 55.95, -3.12 53.08, 0 45 M0 45 C-2.92 34.01, 0.18 27.28, 0 15 M0 45 C-1.68 35.8, -0.18 24.26, 0 15 M0 15 C2.1 3.27, 2.23 -0.26, 15 0 M0 15 C-3.61 4.74, 8.83 -0.63, 15 0" stroke="#2f9e44" stroke-width="4" fill="none"></path></g><g transform="translate(2788.359375 838.3999999999996) rotate(0 31.640625 21.59999999999991)"><text x="31.640625" y="0" font-family="Cascadia, Segoe UI Emoji" font-size="36px" fill="#2f9e44" text-anchor="middle" style="white-space: pre;" direction="ltr" dominant-baseline="text-before-edge">sub</text></g><g transform="translate(2790 710) rotate(0 31.640625 21.59999999999991)"><text x="31.640625" y="0" font-family="Cascadia, Segoe UI Emoji" font-size="36px" fill="#2f9e44" text-anchor="middle" style="white-space: pre;" direction="ltr" dominant-baseline="text-before-edge">...</text></g><g stroke-linecap="round" transform="translate(3210 510) rotate(0 250 170)"><path d="M34.1 -1.73 L465.23 -0.26 L484.36 4.27 L498.83 11.96 L499.15 34.14 L497.15 305.31 L494.07 323.94 L490.74 336.39 L467.64 337.77 L31.1 339.83 L14.34 336.8 L1.18 323.83 L3.58 310.27 L2.84 28.65 L0.19 17.97 L6.41 8.13 L19.97 3.76 L31.13 2.15" stroke="none" stroke-width="0" fill="#fff"></path><path d="M32 0 M32 0 C187.29 1.3, 339.57 1.76, 468 0 M32 0 C159.1 2.32, 286.09 1.79, 468 0 M468 0 C488.73 -2.36, 497.77 8.65, 500 32 M468 0 C491.03 -3.56, 503.38 8.76, 500 32 M500 32 C497.23 143.55, 496.69 249.13, 500 308 M500 32 C500.87 136.45, 500.56 239.92, 500 308 M500 308 C498 325.5, 492.7 336.63, 468 340 M500 308 C496.89 327.59, 488.73 336.79, 468 340 M468 340 C357.99 340.66, 245.59 339.45, 32 340 M468 340 C322.87 336.62, 177.27 338.14, 32 340 M32 340 C14.55 337.83, -3.64 330.73, 0 308 M32 340 C8.6 336, -2.88 328.32, 0 308 M0 308 C-1.5 210.71, 1.25 107.58, 0 32 M0 308 C3.76 246.48, 0.85 187.37, 0 32 M0 32 C-0.78 10.74, 12.93 -1.3, 32 0 M0 32 C-2.93 10.7, 8.8 1.44, 32 0" stroke="#1971c2" stroke-width="4" fill="none"></path></g><g transform="translate(3386.171875 658.3999999999996) rotate(0 73.828125 21.59999999999991)"><text x="73.828125" y="0" font-family="Cascadia, Segoe UI Emoji" font-size="36px" fill="#1971c2" text-anchor="middle" style="white-space: pre;" direction="ltr" dominant-baseline="text-before-edge">Storage</text></g><g stroke-linecap="round"><g transform="translate(2950 610) rotate(0 131.02571372758575 -0.5532437902411402)"><path d="M1.96 -0.25 C45.57 -0.22, 219.84 2.31, 262.47 2.02 M-0.42 -2.85 C42.97 -3.76, 217.61 -2.37, 261.57 -1.89" stroke="#1971c2" stroke-width="4" fill="none"></path></g><g transform="translate(2950 610) rotate(0 131.02571372758575 -0.5532437902411402)"><path d="M232.94 11.66 C245.34 1.21, 248.92 0.12, 258.42 -0.42 M234.43 9.93 C244.89 4.73, 257.21 1.27, 259.83 -0.32" stroke="#1971c2" stroke-width="4" fill="none"></path></g><g transform="translate(2950 610) rotate(0 131.02571372758575 -0.5532437902411402)"><path d="M233.12 -8.86 C245.74 -12.57, 249.25 -6.91, 258.42 -0.42 M234.61 -10.59 C244.83 -7.63, 257.08 -2.91, 259.83 -0.32" stroke="#1971c2" stroke-width="4" fill="none"></path></g></g><mask></mask><g stroke-linecap="round"><g transform="translate(3210 770) rotate(0 -130.76664496921057 -0.9757406385151626)"><path d="M0.64 0.66 C-43.03 1.25, -218.91 1.66, -262.17 1.1 M-2.46 -1.45 C-45.25 -1.5, -213.99 -3.39, -256.94 -3.31" stroke="#1971c2" stroke-width="4" fill="none"></path></g><g transform="translate(3210 770) rotate(0 -130.76664496921057 -0.9757406385151626)"><path d="M-227.75 -16.52 C-235.61 -8.8, -249.31 -4.87, -253.88 0.23 M-229.65 -14.93 C-233.76 -12.42, -242.66 -8.56, -257.88 -4.63" stroke="#1971c2" stroke-width="4" fill="none"></path></g><g transform="translate(3210 770) rotate(0 -130.76664496921057 -0.9757406385151626)"><path d="M-227.87 4 C-235.34 5.69, -249 3.58, -253.88 0.23 M-229.77 5.59 C-233.71 3.56, -242.58 2.87, -257.88 -4.63" stroke="#1971c2" stroke-width="4" fill="none"></path></g></g><mask></mask><g stroke-linecap="round"><g transform="translate(2390 470) rotate(0 148.67295542489774 -0.6457128627225757)"><path d="M0.49 1.37 C50.7 1.35, 250.53 1.31, 300.04 1.46 M-2.69 -0.36 C47.26 -1.35, 246.87 -2.49, 297.82 -2.75" stroke="#2f9e44" stroke-width="4" fill="none"></path></g><g transform="translate(2390 470) rotate(0 148.67295542489774 -0.6457128627225757)"><path d="M271.64 7.72 C278.88 1.32, 287.31 2.15, 298.59 -4.21 M270.53 6.5 C276.11 5.39, 285.47 3.15, 296.58 -2.93" stroke="#2f9e44" stroke-width="4" fill="none"></path></g><g transform="translate(2390 470) rotate(0 148.67295542489774 -0.6457128627225757)"><path d="M271.52 -12.8 C279.02 -13.93, 287.49 -7.84, 298.59 -4.21 M270.41 -14.02 C276.23 -9.81, 285.62 -6.72, 296.58 -2.93" stroke="#2f9e44" stroke-width="4" fill="none"></path></g></g><mask></mask><g stroke-linecap="round"><g transform="translate(2390 570) rotate(0 151.3269530368225 0.3514460887763562)"><path d="M-0.86 2.53 C49.07 1.82, 247.85 -1.49, 298.13 -1.83 M3.87 1.44 C54.83 2.27, 254.26 0.4, 303.51 0.81" stroke="#2f9e44" stroke-width="4" fill="none"></path></g><g transform="translate(2390 570) rotate(0 151.3269530368225 0.3514460887763562)"><path d="M278.95 8.43 C279.54 9.85, 289.86 4.94, 300.43 -1.11 M276.09 13.06 C279.68 11.24, 286.67 8.9, 302.94 -1.16" stroke="#2f9e44" stroke-width="4" fill="none"></path></g><g transform="translate(2390 570) rotate(0 151.3269530368225 0.3514460887763562)"><path d="M278.92 -12.09 C279.87 -5.58, 290.2 -5.4, 300.43 -1.11 M276.06 -7.46 C279.26 -4.9, 286.25 -2.85, 302.94 -1.16" stroke="#2f9e44" stroke-width="4" fill="none"></path></g></g><mask></mask><g stroke-linecap="round"><g transform="translate(2390 870) rotate(0 148.91474213015226 -0.241206400394276)"><path d="M1.11 -0.87 C51.04 -0.48, 249.43 0.03, 299.56 -0.2 M-1.73 -3.81 C47.78 -2.73, 246.61 2.75, 297.09 3.33" stroke="#2f9e44" stroke-width="4" fill="none"></path></g><g transform="translate(2390 870) rotate(0 148.91474213015226 -0.241206400394276)"><path d="M267.45 12.38 C277.09 12.63, 282.69 4.71, 298.6 2.16 M268.35 13.69 C276.67 8.12, 288.42 6.38, 297.24 4.32" stroke="#2f9e44" stroke-width="4" fill="none"></path></g><g transform="translate(2390 870) rotate(0 148.91474213015226 -0.241206400394276)"><path d="M267.87 -8.13 C277.02 -1.74, 282.49 -3.52, 298.6 2.16 M268.77 -6.83 C277.05 -5.58, 288.66 -0.48, 297.24 4.32" stroke="#2f9e44" stroke-width="4" fill="none"></path></g></g><mask></mask><g stroke-linecap="round"><g transform="translate(1370 590) rotate(0 80.46830152749953 1.1223771161721743)"><path d="M1.35 -1.71 C27.21 -1.53, 131.17 -1.02, 157.34 -0.57 M-1.36 3.54 C25.13 4.29, 136.12 4, 162.3 2.75" stroke="#f08c00" stroke-width="4" fill="none"></path></g><g transform="translate(1370 590) rotate(0 80.46830152749953 1.1223771161721743)"><path d="M131.89 9.79 C144.2 6.9, 157.03 4.38, 158.99 5.55 M134.15 12.58 C138.65 13.14, 145.84 8.92, 163.7 1.07" stroke="#f08c00" stroke-width="4" fill="none"></path></g><g transform="translate(1370 590) rotate(0 80.46830152749953 1.1223771161721743)"><path d="M131.46 -10.73 C143.7 -5.87, 156.69 -0.64, 158.99 5.55 M133.73 -7.93 C138.64 -2.85, 145.93 -2.53, 163.7 1.07" stroke="#f08c00" stroke-width="4" fill="none"></path></g></g><mask></mask><g stroke-linecap="round"><g transform="translate(1530 690) rotate(0 -78.68815003629788 -1.0680164031077766)"><path d="M2.62 1.22 C-23.41 1.03, -131.32 1.44, -158.55 1.1 M0.6 -0.59 C-25.46 -1.83, -132.73 -3.72, -160 -3.32" stroke="#f08c00" stroke-width="4" fill="none"></path></g><g transform="translate(1530 690) rotate(0 -78.68815003629788 -1.0680164031077766)"><path d="M-130.02 -11.38 C-136.11 -11.83, -144.94 -9.94, -162.95 -2.57 M-130.23 -14.79 C-141.59 -8.07, -153.6 -7.19, -158.89 -2.89" stroke="#f08c00" stroke-width="4" fill="none"></path></g><g transform="translate(1530 690) rotate(0 -78.68815003629788 -1.0680164031077766)"><path d="M-130.11 9.14 C-136.5 4.27, -145.31 1.75, -162.95 -2.57 M-130.31 5.73 C-141.87 4.72, -153.84 -2.14, -158.89 -2.89" stroke="#f08c00" stroke-width="4" fill="none"></path></g></g><mask></mask><g stroke-linecap="round"><g transform="translate(1870 630) rotate(0 129.0810496892782 -1.0401821351051694)"><path d="M-2.03 -0.05 C41.17 -0.03, 216.89 -1.95, 260.19 -2.05 M2.07 -2.55 C44.82 -2.03, 214.5 -0.31, 258.05 0.47" stroke="#f08c00" stroke-width="4" fill="none"></path></g><g transform="translate(1870 630) rotate(0 129.0810496892782 -1.0401821351051694)"><path d="M229.65 10.62 C236.48 4.26, 248.06 1.89, 256.33 3.62 M229.45 9.77 C240.93 6.58, 248.51 2.56, 257.61 -0.81" stroke="#f08c00" stroke-width="4" fill="none"></path></g><g transform="translate(1870 630) rotate(0 129.0810496892782 -1.0401821351051694)"><path d="M229.93 -9.9 C236.35 -9.36, 247.83 -4.82, 256.33 3.62 M229.73 -10.75 C241.3 -6.58, 248.78 -3.24, 257.61 -0.81" stroke="#f08c00" stroke-width="4" fill="none"></path></g></g><mask></mask><g stroke-linecap="round" transform="translate(2450 1090) rotate(0 370 80)"><path d="M33.06 -1.74 L715.67 -3.09 L732.4 5.72 L743.09 23.9 L737.46 134.35 L734 155.75 L722.28 156.24 L711.44 161.01 L24.43 158.93 L8.02 151.69 L4.05 136.39 L3.91 29.22 L5.84 18.03 L11.35 7.98 L17.57 -0.82 L30.63 3.29" stroke="none" stroke-width="0" fill="#fff"></path><path d="M32 0 M32 0 C228.63 3.63, 423.19 1.84, 708 0 M32 0 C260.31 4.97, 486.52 5.78, 708 0 M708 0 C727.6 -2.97, 742.86 13.61, 740 32 M708 0 C728.62 1.8, 736.27 10.61, 740 32 M740 32 C740.71 68.15, 737.92 103.47, 740 128 M740 32 C739.98 63.99, 741.97 96.73, 740 128 M740 128 C740.68 153.3, 725.82 157.52, 708 160 M740 128 C742.92 147.28, 733.28 161.86, 708 160 M708 160 C473.02 158.27, 239.95 157.84, 32 160 M708 160 C545.99 157.2, 383.62 156.12, 32 160 M32 160 C7.92 160.02, 0.61 146.72, 0 128 M32 160 C12.09 164.21, 0.33 149.4, 0 128 M0 128 C-2.54 97.96, -3.76 71.33, 0 32 M0 128 C-0.47 107.42, -2.72 83.92, 0 32 M0 32 C-0.28 11.04, 9.69 -3.67, 32 0 M0 32 C-3.47 13.75, 10.87 3.92, 32 0" stroke="#2f9e44" stroke-width="4" fill="none"></path></g><g stroke-linecap="round" transform="translate(2490 1150) rotate(0 90 30)"><path d="M17.77 -2.42 L174.94 0.04 L172.7 5.75 L181.01 12.51 L180.5 48.71 L171.06 57.5 L168.74 60.11 L10.39 57.97 L3.2 59.18 L4.17 52.44 L-1.06 12.05 L6.31 4.35 L12.69 2.94" stroke="none" stroke-width="0" fill="#fff"></path><path d="M15 0 M15 0 C49.67 1.68, 87.95 -1, 165 0 M15 0 C59.73 0.26, 107.88 3.22, 165 0 M165 0 C178.29 -3.32, 182 5.34, 180 15 M165 0 C175.24 -2.17, 181.16 5.21, 180 15 M180 15 C179.71 26.52, 181.26 38.5, 180 45 M180 15 C179.19 25.43, 179.2 31.53, 180 45 M180 45 C183.83 56.39, 171.51 62.68, 165 60 M180 45 C177.19 57.74, 174.85 63.54, 165 60 M165 60 C128.03 60.89, 101.25 61.44, 15 60 M165 60 C127.92 62.32, 89.13 62.67, 15 60 M15 60 C5.19 63.73, 0.19 51.6, 0 45 M15 60 C6.76 62.48, -0.26 55.58, 0 45 M0 45 C3.39 32.55, -2.31 28.56, 0 15 M0 45 C-1.01 39.18, 0.74 30.16, 0 15 M0 15 C-3.05 3.95, 7.82 0.86, 15 0 M0 15 C-3.77 5.07, 7.03 -0.79, 15 0" stroke="#2f9e44" stroke-width="4" fill="none"></path></g><g transform="translate(2516.71875 1158.3999999999996) rotate(0 63.28125 21.59999999999991)"><text x="63.28125" y="0" font-family="Cascadia, Segoe UI Emoji" font-size="36px" fill="#2f9e44" text-anchor="middle" style="white-space: pre;" direction="ltr" dominant-baseline="text-before-edge">logger</text></g><g stroke-linecap="round" transform="translate(2730 1150) rotate(0 90 30)"><path d="M18.31 2.95 L171.07 2.2 L177.59 6.37 L177.11 13.54 L177.03 50.64 L171.88 55.51 L162.35 61.82 L6.26 59.04 L2.34 56.63 L-0.11 47.72 L-0.05 11.85 L2 3.18 L16.69 3.46" stroke="none" stroke-width="0" fill="#fff"></path><path d="M15 0 M15 0 C69.11 5.05, 118.25 5.45, 165 0 M15 0 C51.51 1.61, 88 1.83, 165 0 M165 0 C171.34 -1.57, 181.12 5.98, 180 15 M165 0 C174.93 0.32, 179.7 6.94, 180 15 M180 15 C181.62 25.69, 180.88 36.37, 180 45 M180 15 C180.99 22.65, 181.68 30.17, 180 45 M180 45 C180 53.6, 173.06 57.2, 165 60 M180 45 C181.2 51.57, 172.19 58.34, 165 60 M165 60 C109.01 62.99, 48.6 55.54, 15 60 M165 60 C119.26 60, 76.57 60.64, 15 60 M15 60 C2.95 57.4, 0.44 55.43, 0 45 M15 60 C3.23 60.4, 3.9 56.98, 0 45 M0 45 C3.77 35.36, 0.8 29.72, 0 15 M0 45 C1.62 39.92, -1.13 32.15, 0 15 M0 15 C-1.15 1.58, 8.66 -0.01, 15 0 M0 15 C-1.47 5.94, 4.15 -3.98, 15 0" stroke="#2f9e44" stroke-width="4" fill="none"></path></g><g transform="translate(2788.359375 1158.3999999999996) rotate(0 31.640625 21.59999999999991)"><text x="31.640625" y="0" font-family="Cascadia, Segoe UI Emoji" font-size="36px" fill="#2f9e44" text-anchor="middle" style="white-space: pre;" direction="ltr" dominant-baseline="text-before-edge">WAL</text></g><g stroke-linecap="round" transform="translate(2950 1150) rotate(0 90 30)"><path d="M15 -1.4 L169.62 -1.86 L177.3 0.77 L177.32 10.04 L183.04 50.55 L172.8 61.83 L168.99 63.47 L4.98 58.9 L0.96 55.72 L-2.47 49.3 L0.92 13.56 L1.7 1.15 L15.44 0.43" stroke="none" stroke-width="0" fill="#fff"></path><path d="M15 0 M15 0 C55.96 -4.78, 89.85 -1.12, 165 0 M15 0 C71.78 -2.05, 128.71 1.24, 165 0 M165 0 C177.93 2.23, 177.44 4.11, 180 15 M165 0 C173.67 -3.94, 184.21 4.99, 180 15 M180 15 C176.66 26.15, 178.64 27.85, 180 45 M180 15 C181.46 27.48, 177.84 38.29, 180 45 M180 45 C182.32 54.63, 174.15 59.17, 165 60 M180 45 C182.44 53.37, 177.33 64.34, 165 60 M165 60 C110.19 62.9, 49.47 63.91, 15 60 M165 60 C104.08 58.79, 45.53 59.84, 15 60 M15 60 C7.15 58.96, -1.27 51.31, 0 45 M15 60 C8.8 59.06, -2.25 58.3, 0 45 M0 45 C-0.98 39.02, 2.21 33.61, 0 15 M0 45 C1.29 35.04, 1.07 27.35, 0 15 M0 15 C2.35 1.41, 3.5 0.68, 15 0 M0 15 C3.96 5.08, 4.86 -4.38, 15 0" stroke="#2f9e44" stroke-width="4" fill="none"></path></g><g transform="translate(2987.265625 1158.3999999999996) rotate(0 52.734375 21.59999999999991)"><text x="52.734375" y="0" font-family="Cascadia, Segoe UI Emoji" font-size="36px" fill="#2f9e44" text-anchor="middle" style="white-space: pre;" direction="ltr" dominant-baseline="text-before-edge">stats</text></g><g stroke-linecap="round"><g transform="translate(2810 930) rotate(0 0.24193661902245367 78.25367365296916)"><path d="M1.5 -0.89 C1.91 26.06, 0.96 133.73, 1.16 160.34 M-1.12 -3.83 C-0.87 22.4, -1.03 128.46, -0.44 156.06" stroke="#2f9e44" stroke-width="4" fill="none"></path></g><g transform="translate(2810 930) rotate(0 0.24193661902245367 78.25367365296916)"><path d="M-12.21 129.62 C-6.62 138.89, -6.17 143.71, 2.59 159.11 M-9.77 126.16 C-8.8 135.06, -3.81 141.52, -0.5 154.16" stroke="#2f9e44" stroke-width="4" fill="none"></path></g><g transform="translate(2810 930) rotate(0 0.24193661902245367 78.25367365296916)"><path d="M8.31 129.45 C8.67 138.98, 3.9 143.84, 2.59 159.11 M10.75 125.99 C6.79 134.91, 6.85 141.4, -0.5 154.16" stroke="#2f9e44" stroke-width="4" fill="none"></path></g></g><mask></mask><g stroke-linecap="round"><g transform="translate(2730 930) rotate(0 -469.20279628273056 -37.39220579285575)"><path d="M1 0.32 C-119.08 20.13, -565.61 154.78, -722.18 121.17 C-878.76 87.57, -902.49 -147.56, -938.45 -201.32 M-1.89 -1.97 C-120.97 18.21, -560.71 149.62, -716.97 116.8 C-873.22 83.97, -902.87 -146.2, -939.41 -198.92" stroke="#2f9e44" stroke-width="4" fill="none"></path></g><g transform="translate(2730 930) rotate(0 -469.20279628273056 -37.39220579285575)"><path d="M-918.83 -179.78 C-922.84 -179.67, -931.25 -184.26, -941.36 -200.76 M-917.52 -174.84 C-925.94 -183.25, -928.54 -187.22, -940.23 -200.91" stroke="#2f9e44" stroke-width="4" fill="none"></path></g><g transform="translate(2730 930) rotate(0 -469.20279628273056 -37.39220579285575)"><path d="M-937.85 -172.06 C-937.4 -173.94, -941.22 -180.4, -941.36 -200.76 M-936.53 -167.12 C-939.94 -177.82, -937.44 -183.86, -940.23 -200.91" stroke="#2f9e44" stroke-width="4" fill="none"></path></g></g><mask></mask><g stroke-linecap="round"><g transform="translate(451 590) rotate(0 300.1335127700495 0.061272055658264435)"><path d="M-1.16 0.84 C98.27 1.64, 496.15 2.34, 596.07 2.02 M3.41 -1.17 C103.78 -0.89, 502.54 -2.34, 601.43 -1.89" stroke="#1e1e1e" stroke-width="4" fill="none"></path></g><g transform="translate(451 590) rotate(0 300.1335127700495 0.061272055658264435)"><path d="M574.44 5.62 C584.26 6.23, 587.82 3.04, 604 -2.12 M573.43 7.7 C579.32 3.99, 585.77 2.39, 601.74 0.09" stroke="#1e1e1e" stroke-width="4" fill="none"></path></g><g transform="translate(451 590) rotate(0 300.1335127700495 0.061272055658264435)"><path d="M574.44 -14.9 C583.85 -8.51, 587.41 -5.93, 604 -2.12 M573.43 -12.82 C579.51 -12.06, 585.96 -9.18, 601.74 0.09" stroke="#1e1e1e" stroke-width="4" fill="none"></path></g></g><mask></mask><g stroke-linecap="round"><g transform="translate(1049 690) rotate(0 -297.59363038655374 1.6454297801451503)"><path d="M1.62 -1.26 C-97.27 -0.98, -495.96 -0.22, -595.77 -0.1 M-0.95 4.23 C-99.79 5.14, -497.18 3.81, -596.8 3.47" stroke="#1e1e1e" stroke-width="4" fill="none"></path></g><g transform="translate(1049 690) rotate(0 -297.59363038655374 1.6454297801451503)"><path d="M-570.37 -3.52 C-574.85 -3.21, -581.51 -2.67, -599.09 1.19 M-566.76 -8.51 C-578.21 -4.23, -588.45 -1.29, -597.79 3.82" stroke="#1e1e1e" stroke-width="4" fill="none"></path></g><g transform="translate(1049 690) rotate(0 -297.59363038655374 1.6454297801451503)"><path d="M-570.44 17 C-574.64 12.96, -581.29 9.14, -599.09 1.19 M-566.83 12.01 C-577.98 9.32, -588.2 5.28, -597.79 3.82" stroke="#1e1e1e" stroke-width="4" fill="none"></path></g></g><mask></mask><g transform="translate(530 350) rotate(0 168.75 108)"><text x="0" y="0" font-family="Cascadia, Segoe UI Emoji" font-size="36px" fill="#1e1e1e" text-anchor="start" style="white-space: pre;" direction="ltr" dominant-baseline="text-before-edge">Hset {</text><text x="0" y="43.199999999999996" font-family="Cascadia, Segoe UI Emoji" font-size="36px" fill="#1e1e1e" text-anchor="start" style="white-space: pre;" direction="ltr" dominant-baseline="text-before-edge">    table: "t1",</text><text x="0" y="86.39999999999999" font-family="Cascadia, Segoe UI Emoji" font-size="36px" fill="#1e1e1e" text-anchor="start" style="white-space: pre;" direction="ltr" dominant-baseline="text-before-edge">    key: "k1",</text><text x="0" y="129.6" font-family="Cascadia, Segoe UI Emoji" font-size="36px" fill="#1e1e1e" text-anchor="start" style="white-space: pre;" direction="ltr" dominant-baseline="text-before-edge">    value: "v1"</text><text x="0" y="172.79999999999998" font-family="Cascadia, Segoe UI Emoji" font-size="36px" fill="#1e1e1e" text-anchor="start" style="white-space: pre;" direction="ltr" dominant-baseline="text-before-edge">}</text></g><g transform="translate(510 710) rotate(0 210.9375 86.40000000000009)"><text x="0" y="0" font-family="Cascadia, Segoe UI Emoji" font-size="36px" fill="#1e1e1e" text-anchor="start" style="white-space: pre;" direction="ltr" dominant-baseline="text-before-edge">Response {</text><text x="0" y="43.199999999999996" font-family="Cascadia, Segoe UI Emoji" font-size="36px" fill="#1e1e1e" text-anchor="start" style="white-space: pre;" direction="ltr" dominant-baseline="text-before-edge">    status: 200,</text><text x="0" y="86.39999999999999" font-family="Cascadia, Segoe UI Emoji" font-size="36px" fill="#1e1e1e" text-anchor="start" style="white-space: pre;" direction="ltr" dominant-baseline="text-before-edge">    old_value: None,</text><text x="0" y="129.6" font-family="Cascadia, Segoe UI Emoji" font-size="36px" fill="#1e1e1e" text-anchor="start" style="white-space: pre;" direction="ltr" dominant-baseline="text-before-edge">}</text></g><g transform="translate(1150 770) rotate(0 42.1875 64.80000000000018)"><text x="0" y="0" font-family="Cascadia, Segoe UI Emoji" font-size="36px" fill="#f08c00" text-anchor="start" style="white-space: pre;" direction="ltr" dominant-baseline="text-before-edge">TCP</text><text x="0" y="43.199999999999996" font-family="Cascadia, Segoe UI Emoji" font-size="36px" fill="#f08c00" text-anchor="start" style="white-space: pre;" direction="ltr" dominant-baseline="text-before-edge">gRPC</text><text x="0" y="86.39999999999999" font-family="Cascadia, Segoe UI Emoji" font-size="36px" fill="#f08c00" text-anchor="start" style="white-space: pre;" direction="ltr" dominant-baseline="text-before-edge">HTTP</text></g><g transform="translate(1630 770) rotate(0 84.375 64.80000000000018)"><text x="0" y="0" font-family="Cascadia, Segoe UI Emoji" font-size="36px" fill="#f08c00" text-anchor="start" style="white-space: pre;" direction="ltr" dominant-baseline="text-before-edge">ProtoBuf</text><text x="0" y="43.199999999999996" font-family="Cascadia, Segoe UI Emoji" font-size="36px" fill="#f08c00" text-anchor="start" style="white-space: pre;" direction="ltr" dominant-baseline="text-before-edge">JSON</text><text x="0" y="86.39999999999999" font-family="Cascadia, Segoe UI Emoji" font-size="36px" fill="#f08c00" text-anchor="start" style="white-space: pre;" direction="ltr" dominant-baseline="text-before-edge">Redis</text></g></svg>